<svg width="158" height="50" viewBox="0 0 158 50" fill="none" xmlns="http://www.w3.org/2000/svg">
<path d="M10.8032 18.3369C10.8032 17.6452 10.5591 17.1162 10.0708 16.75C9.58252 16.3757 8.70361 15.985 7.43408 15.5781C6.16455 15.1631 5.15951 14.7562 4.41895 14.3574C2.40072 13.2669 1.3916 11.798 1.3916 9.95068C1.3916 8.9904 1.66016 8.1359 2.19727 7.38721C2.74251 6.63037 3.51969 6.04036 4.52881 5.61719C5.54606 5.19401 6.68538 4.98242 7.94678 4.98242C9.21631 4.98242 10.3475 5.21436 11.3403 5.67822C12.3332 6.13395 13.1022 6.78092 13.6475 7.61914C14.2008 8.45736 14.4775 9.40951 14.4775 10.4756H10.8154C10.8154 9.66178 10.5591 9.03109 10.0464 8.5835C9.53369 8.12777 8.81348 7.8999 7.88574 7.8999C6.99056 7.8999 6.29476 8.09115 5.79834 8.47363C5.30192 8.84798 5.05371 9.3444 5.05371 9.96289C5.05371 10.5407 5.34261 11.0249 5.92041 11.4155C6.50635 11.8062 7.36491 12.1724 8.49609 12.5142C10.5794 13.1408 12.0972 13.918 13.0493 14.8457C14.0015 15.7734 14.4775 16.929 14.4775 18.3125C14.4775 19.8506 13.8957 21.0591 12.7319 21.938C11.5682 22.8088 10.0016 23.2441 8.03223 23.2441C6.66504 23.2441 5.41992 22.9959 4.29688 22.4995C3.17383 21.995 2.31527 21.3073 1.72119 20.4365C1.13525 19.5658 0.842285 18.5566 0.842285 17.4092H4.5166C4.5166 19.3704 5.68848 20.3511 8.03223 20.3511C8.90299 20.3511 9.58252 20.1761 10.0708 19.8262C10.5591 19.4681 10.8032 18.9717 10.8032 18.3369ZM24.3896 23C24.2269 22.6826 24.1089 22.2879 24.0356 21.8159C23.1812 22.7681 22.0703 23.2441 20.7031 23.2441C19.4092 23.2441 18.335 22.8698 17.4805 22.1211C16.6341 21.3724 16.2109 20.4284 16.2109 19.2891C16.2109 17.8893 16.7277 16.8151 17.7612 16.0664C18.8029 15.3177 20.3044 14.9393 22.2656 14.9312H23.8892V14.1743C23.8892 13.564 23.7305 13.0757 23.4131 12.7095C23.1038 12.3433 22.6115 12.1602 21.936 12.1602C21.342 12.1602 20.874 12.3026 20.5322 12.5874C20.1986 12.8722 20.0317 13.2629 20.0317 13.7593H16.5039C16.5039 12.9943 16.7399 12.2863 17.2119 11.6353C17.6839 10.9842 18.3512 10.4756 19.2139 10.1094C20.0765 9.73503 21.0449 9.54785 22.1191 9.54785C23.7467 9.54785 25.0366 9.95882 25.9888 10.7808C26.9491 11.5946 27.4292 12.742 27.4292 14.2231V19.9482C27.4373 21.2015 27.6123 22.1496 27.9541 22.7925V23H24.3896ZM21.4722 20.5464C21.993 20.5464 22.4731 20.4325 22.9126 20.2046C23.3521 19.9686 23.6776 19.6553 23.8892 19.2646V16.9941H22.5708C20.8049 16.9941 19.8649 17.6045 19.751 18.8252L19.7388 19.0327C19.7388 19.4722 19.8934 19.8343 20.2026 20.1191C20.5119 20.404 20.9351 20.5464 21.4722 20.5464ZM31.1035 23V12.3799H29.1382V9.79199H31.1035V8.66895C31.1035 7.18783 31.5267 6.04036 32.373 5.22656C33.2275 4.40462 34.4198 3.99365 35.9497 3.99365C36.438 3.99365 37.0361 4.07503 37.7441 4.23779L37.7075 6.97217C37.4146 6.89893 37.0565 6.8623 36.6333 6.8623C35.3068 6.8623 34.6436 7.48486 34.6436 8.72998V9.79199H37.2681V12.3799H34.6436V23H31.1035ZM44.8853 23.2441C42.9484 23.2441 41.3696 22.6501 40.1489 21.4619C38.9364 20.2738 38.3301 18.6909 38.3301 16.7134V16.3716C38.3301 15.0451 38.5864 13.861 39.0991 12.8193C39.6118 11.7695 40.3361 10.9639 41.272 10.4023C42.216 9.83268 43.2902 9.54785 44.4946 9.54785C46.3013 9.54785 47.7214 10.1175 48.7549 11.2568C49.7965 12.3962 50.3174 14.0116 50.3174 16.103V17.5435H41.9067C42.0207 18.4061 42.3625 19.0978 42.9321 19.6187C43.5099 20.1395 44.2383 20.3999 45.1172 20.3999C46.4762 20.3999 47.5382 19.9076 48.3032 18.9229L50.0366 20.8638C49.5076 21.6125 48.7915 22.1984 47.8882 22.6216C46.9849 23.0366 45.9839 23.2441 44.8853 23.2441ZM44.4824 12.4043C43.7826 12.4043 43.2129 12.6403 42.7734 13.1123C42.3421 13.5843 42.0654 14.2598 41.9434 15.1387H46.8506V14.8579C46.8343 14.0767 46.6227 13.4744 46.2158 13.0513C45.8089 12.62 45.2311 12.4043 44.4824 12.4043ZM66.2109 23C66.0482 22.6826 65.9302 22.2879 65.8569 21.8159C65.0024 22.7681 63.8916 23.2441 62.5244 23.2441C61.2305 23.2441 60.1562 22.8698 59.3018 22.1211C58.4554 21.3724 58.0322 20.4284 58.0322 19.2891C58.0322 17.8893 58.549 16.8151 59.5825 16.0664C60.6242 15.3177 62.1257 14.9393 64.0869 14.9312H65.7104V14.1743C65.7104 13.564 65.5518 13.0757 65.2344 12.7095C64.9251 12.3433 64.4328 12.1602 63.7573 12.1602C63.1632 12.1602 62.6953 12.3026 62.3535 12.5874C62.0199 12.8722 61.853 13.2629 61.853 13.7593H58.3252C58.3252 12.9943 58.5612 12.2863 59.0332 11.6353C59.5052 10.9842 60.1725 10.4756 61.0352 10.1094C61.8978 9.73503 62.8662 9.54785 63.9404 9.54785C65.568 9.54785 66.8579 9.95882 67.8101 10.7808C68.7703 11.5946 69.2505 12.742 69.2505 14.2231V19.9482C69.2586 21.2015 69.4336 22.1496 69.7754 22.7925V23H66.2109ZM63.2935 20.5464C63.8143 20.5464 64.2944 20.4325 64.7339 20.2046C65.1733 19.9686 65.4989 19.6553 65.7104 19.2646V16.9941H64.3921C62.6261 16.9941 61.6862 17.6045 61.5723 18.8252L61.5601 19.0327C61.5601 19.4722 61.7147 19.8343 62.0239 20.1191C62.3332 20.404 62.7563 20.5464 63.2935 20.5464ZM75.2075 9.79199L75.3174 11.3179C76.2614 10.1379 77.5269 9.54785 79.1138 9.54785C80.5135 9.54785 81.5552 9.95882 82.2388 10.7808C82.9224 11.6027 83.2723 12.8315 83.2886 14.4673V23H79.7607V14.5527C79.7607 13.804 79.598 13.2629 79.2725 12.9292C78.9469 12.5874 78.4058 12.4165 77.6489 12.4165C76.6561 12.4165 75.9115 12.8397 75.415 13.686V23H71.8872V9.79199H75.2075ZM85.4248 16.2983C85.4248 14.2394 85.8846 12.5996 86.8042 11.3789C87.7319 10.1582 88.9974 9.54785 90.6006 9.54785C91.8864 9.54785 92.9484 10.028 93.7866 10.9883V4.25H97.3267V23H94.1406L93.9697 21.5962C93.0908 22.6948 91.9596 23.2441 90.5762 23.2441C89.0218 23.2441 87.7726 22.6338 86.8286 21.4131C85.8927 20.1842 85.4248 18.4793 85.4248 16.2983ZM88.9526 16.5547C88.9526 17.7917 89.1683 18.7397 89.5996 19.3989C90.0309 20.0581 90.6576 20.3877 91.4795 20.3877C92.57 20.3877 93.339 19.9279 93.7866 19.0083V13.7959C93.3472 12.8763 92.5863 12.4165 91.5039 12.4165C89.8031 12.4165 88.9526 13.7959 88.9526 16.5547ZM117.212 15.2974H110.181V20.0581H118.433V23H106.519V5.22656H118.408V8.19287H110.181V12.4287H117.212V15.2974ZM128.003 23C127.84 22.6826 127.722 22.2879 127.649 21.8159C126.794 22.7681 125.684 23.2441 124.316 23.2441C123.022 23.2441 121.948 22.8698 121.094 22.1211C120.247 21.3724 119.824 20.4284 119.824 19.2891C119.824 17.8893 120.341 16.8151 121.375 16.0664C122.416 15.3177 123.918 14.9393 125.879 14.9312H127.502V14.1743C127.502 13.564 127.344 13.0757 127.026 12.7095C126.717 12.3433 126.225 12.1602 125.549 12.1602C124.955 12.1602 124.487 12.3026 124.146 12.5874C123.812 12.8722 123.645 13.2629 123.645 13.7593H120.117C120.117 12.9943 120.353 12.2863 120.825 11.6353C121.297 10.9842 121.965 10.4756 122.827 10.1094C123.69 9.73503 124.658 9.54785 125.732 9.54785C127.36 9.54785 128.65 9.95882 129.602 10.7808C130.562 11.5946 131.042 12.742 131.042 14.2231V19.9482C131.051 21.2015 131.226 22.1496 131.567 22.7925V23H128.003ZM125.085 20.5464C125.606 20.5464 126.086 20.4325 126.526 20.2046C126.965 19.9686 127.291 19.6553 127.502 19.2646V16.9941H126.184C124.418 16.9941 123.478 17.6045 123.364 18.8252L123.352 19.0327C123.352 19.4722 123.507 19.8343 123.816 20.1191C124.125 20.404 124.548 20.5464 125.085 20.5464ZM140.906 19.3501C140.906 18.9188 140.69 18.5811 140.259 18.3369C139.836 18.0846 139.152 17.8608 138.208 17.6655C135.067 17.0063 133.496 15.6717 133.496 13.6616C133.496 12.4897 133.98 11.5132 134.949 10.7319C135.925 9.94255 137.199 9.54785 138.77 9.54785C140.446 9.54785 141.785 9.94255 142.786 10.7319C143.795 11.5213 144.299 12.5467 144.299 13.8081H140.771C140.771 13.3035 140.609 12.8885 140.283 12.563C139.958 12.2293 139.449 12.0625 138.757 12.0625C138.163 12.0625 137.703 12.1968 137.378 12.4653C137.052 12.7339 136.89 13.0757 136.89 13.4907C136.89 13.8813 137.073 14.1987 137.439 14.4429C137.813 14.6789 138.44 14.8864 139.319 15.0654C140.198 15.2363 140.938 15.4316 141.541 15.6514C143.404 16.335 144.336 17.519 144.336 19.2036C144.336 20.408 143.819 21.3846 142.786 22.1333C141.752 22.8739 140.417 23.2441 138.782 23.2441C137.675 23.2441 136.69 23.0488 135.828 22.6582C134.973 22.2594 134.302 21.7183 133.813 21.0347C133.325 20.3429 133.081 19.5983 133.081 18.8008H136.426C136.458 19.4274 136.69 19.9076 137.122 20.2412C137.553 20.5749 138.131 20.7417 138.855 20.7417C139.53 20.7417 140.039 20.6156 140.381 20.3633C140.731 20.1029 140.906 19.7651 140.906 19.3501ZM151.55 18.0073L153.992 9.79199H157.776L152.466 25.0508L152.173 25.7466C151.383 27.4718 150.081 28.3345 148.267 28.3345C147.754 28.3345 147.233 28.2572 146.704 28.1025V25.4292L147.241 25.4414C147.909 25.4414 148.405 25.3397 148.73 25.1362C149.064 24.9328 149.325 24.5951 149.512 24.123L149.927 23.0366L145.3 9.79199H149.097L151.55 18.0073ZM5.24902 45.7378V52H1.58691V34.2266H8.52051C9.85514 34.2266 11.027 34.4707 12.0361 34.959C13.0534 35.4473 13.8346 36.1431 14.3799 37.0464C14.9251 37.9416 15.1978 38.9629 15.1978 40.1104C15.1978 41.8519 14.5996 43.2272 13.4033 44.2363C12.2152 45.2373 10.5672 45.7378 8.45947 45.7378H5.24902ZM5.24902 42.7715H8.52051C9.48893 42.7715 10.2254 42.5436 10.73 42.0879C11.2427 41.6322 11.499 40.9811 11.499 40.1348C11.499 39.264 11.2427 38.5601 10.73 38.0229C10.2173 37.4858 9.50928 37.2091 8.60596 37.1929H5.24902V42.7715ZM25 52C24.8372 51.6826 24.7192 51.2879 24.646 50.8159C23.7915 51.7681 22.6807 52.2441 21.3135 52.2441C20.0195 52.2441 18.9453 51.8698 18.0908 51.1211C17.2445 50.3724 16.8213 49.4284 16.8213 48.2891C16.8213 46.8893 17.3381 45.8151 18.3716 45.0664C19.4132 44.3177 20.9147 43.9393 22.876 43.9312H24.4995V43.1743C24.4995 42.564 24.3408 42.0757 24.0234 41.7095C23.7142 41.3433 23.2218 41.1602 22.5464 41.1602C21.9523 41.1602 21.4844 41.3026 21.1426 41.5874C20.8089 41.8722 20.6421 42.2629 20.6421 42.7593H17.1143C17.1143 41.9943 17.3503 41.2863 17.8223 40.6353C18.2943 39.9842 18.9616 39.4756 19.8242 39.1094C20.6868 38.735 21.6553 38.5479 22.7295 38.5479C24.3571 38.5479 25.647 38.9588 26.5991 39.7808C27.5594 40.5946 28.0396 41.742 28.0396 43.2231V48.9482C28.0477 50.2015 28.2227 51.1496 28.5645 51.7925V52H25ZM22.0825 49.5464C22.6034 49.5464 23.0835 49.4325 23.5229 49.2046C23.9624 48.9686 24.2879 48.6553 24.4995 48.2646V45.9941H23.1812C21.4152 45.9941 20.4753 46.6045 20.3613 47.8252L20.3491 48.0327C20.3491 48.4722 20.5037 48.8343 20.813 49.1191C21.1222 49.404 21.5454 49.5464 22.0825 49.5464ZM37.9028 48.3501C37.9028 47.9188 37.6872 47.5811 37.2559 47.3369C36.8327 47.0846 36.1491 46.8608 35.2051 46.6655C32.0638 46.0063 30.4932 44.6717 30.4932 42.6616C30.4932 41.4897 30.9774 40.5132 31.9458 39.7319C32.9224 38.9425 34.196 38.5479 35.7666 38.5479C37.443 38.5479 38.7817 38.9425 39.7827 39.7319C40.7918 40.5213 41.2964 41.5467 41.2964 42.8081H37.7686C37.7686 42.3035 37.6058 41.8885 37.2803 41.563C36.9548 41.2293 36.4461 41.0625 35.7544 41.0625C35.1603 41.0625 34.7005 41.1968 34.375 41.4653C34.0495 41.7339 33.8867 42.0757 33.8867 42.4907C33.8867 42.8813 34.0698 43.1987 34.436 43.4429C34.8104 43.6789 35.437 43.8864 36.3159 44.0654C37.1948 44.2363 37.9354 44.4316 38.5376 44.6514C40.4012 45.335 41.333 46.519 41.333 48.2036C41.333 49.408 40.8162 50.3846 39.7827 51.1333C38.7492 51.8739 37.4146 52.2441 35.7788 52.2441C34.672 52.2441 33.6873 52.0488 32.8247 51.6582C31.9702 51.2594 31.2988 50.7183 30.8105 50.0347C30.3223 49.3429 30.0781 48.5983 30.0781 47.8008H33.4229C33.4554 48.4274 33.6873 48.9076 34.1187 49.2412C34.55 49.5749 35.1278 49.7417 35.8521 49.7417C36.5275 49.7417 37.0361 49.6156 37.3779 49.3633C37.7279 49.1029 37.9028 48.7651 37.9028 48.3501ZM50.769 48.3501C50.769 47.9188 50.5534 47.5811 50.1221 47.3369C49.6989 47.0846 49.0153 46.8608 48.0713 46.6655C44.93 46.0063 43.3594 44.6717 43.3594 42.6616C43.3594 41.4897 43.8436 40.5132 44.812 39.7319C45.7886 38.9425 47.0622 38.5479 48.6328 38.5479C50.3092 38.5479 51.6479 38.9425 52.6489 39.7319C53.658 40.5213 54.1626 41.5467 54.1626 42.8081H50.6348C50.6348 42.3035 50.472 41.8885 50.1465 41.563C49.821 41.2293 49.3123 41.0625 48.6206 41.0625C48.0265 41.0625 47.5667 41.1968 47.2412 41.4653C46.9157 41.7339 46.7529 42.0757 46.7529 42.4907C46.7529 42.8813 46.936 43.1987 47.3022 43.4429C47.6766 43.6789 48.3032 43.8864 49.1821 44.0654C50.061 44.2363 50.8016 44.4316 51.4038 44.6514C53.2674 45.335 54.1992 46.519 54.1992 48.2036C54.1992 49.408 53.6825 50.3846 52.6489 51.1333C51.6154 51.8739 50.2808 52.2441 48.645 52.2441C47.5382 52.2441 46.5535 52.0488 45.6909 51.6582C44.8364 51.2594 44.165 50.7183 43.6768 50.0347C43.1885 49.3429 42.9443 48.5983 42.9443 47.8008H46.2891C46.3216 48.4274 46.5535 48.9076 46.9849 49.2412C47.4162 49.5749 47.994 49.7417 48.7183 49.7417C49.3937 49.7417 49.9023 49.6156 50.2441 49.3633C50.5941 49.1029 50.769 48.7651 50.769 48.3501ZM67.9688 47.2026L69.7021 38.792H73.1079L69.7388 52H66.7847L64.2822 43.687L61.7798 52H58.8379L55.4688 38.792H58.8745L60.5957 47.1904L63.0127 38.792H65.564L67.9688 47.2026ZM74.3164 45.2739C74.3164 43.9637 74.5687 42.7959 75.0732 41.7705C75.5778 40.7451 76.3021 39.9517 77.2461 39.3901C78.1982 38.8286 79.3009 38.5479 80.5542 38.5479C82.3364 38.5479 83.7891 39.0931 84.9121 40.1836C86.0433 41.2741 86.674 42.7552 86.8042 44.627L86.8286 45.5303C86.8286 47.5566 86.263 49.1842 85.1318 50.4131C84.0007 51.6338 82.4829 52.2441 80.5786 52.2441C78.6743 52.2441 77.1525 51.6338 76.0132 50.4131C74.882 49.1924 74.3164 47.5322 74.3164 45.4326V45.2739ZM77.8442 45.5303C77.8442 46.7835 78.0802 47.7438 78.5522 48.4111C79.0243 49.0703 79.6997 49.3999 80.5786 49.3999C81.4331 49.3999 82.1004 49.0744 82.5806 48.4233C83.0607 47.7642 83.3008 46.7144 83.3008 45.2739C83.3008 44.0451 83.0607 43.0929 82.5806 42.4175C82.1004 41.742 81.425 41.4043 80.5542 41.4043C79.6916 41.4043 79.0243 41.742 78.5522 42.4175C78.0802 43.0848 77.8442 44.1224 77.8442 45.5303ZM96.4233 42.1001C95.9432 42.035 95.52 42.0024 95.1538 42.0024C93.8192 42.0024 92.9443 42.4541 92.5293 43.3574V52H89.0015V38.792H92.334L92.4316 40.3667C93.1396 39.1541 94.1203 38.5479 95.3735 38.5479C95.7642 38.5479 96.1304 38.6007 96.4722 38.7065L96.4233 42.1001ZM97.3389 45.2983C97.3389 43.2394 97.7987 41.5996 98.7183 40.3789C99.646 39.1582 100.911 38.5479 102.515 38.5479C103.8 38.5479 104.862 39.028 105.701 39.9883V33.25H109.241V52H106.055L105.884 50.5962C105.005 51.6948 103.874 52.2441 102.49 52.2441C100.936 52.2441 99.6867 51.6338 98.7427 50.4131C97.8068 49.1842 97.3389 47.4793 97.3389 45.2983ZM100.867 45.5547C100.867 46.7917 101.082 47.7397 101.514 48.3989C101.945 49.0581 102.572 49.3877 103.394 49.3877C104.484 49.3877 105.253 48.9279 105.701 48.0083V42.7959C105.261 41.8763 104.5 41.4165 103.418 41.4165C101.717 41.4165 100.867 42.7959 100.867 45.5547ZM119.128 48.3501C119.128 47.9188 118.913 47.5811 118.481 47.3369C118.058 47.0846 117.375 46.8608 116.431 46.6655C113.289 46.0063 111.719 44.6717 111.719 42.6616C111.719 41.4897 112.203 40.5132 113.171 39.7319C114.148 38.9425 115.422 38.5479 116.992 38.5479C118.669 38.5479 120.007 38.9425 121.008 39.7319C122.017 40.5213 122.522 41.5467 122.522 42.8081H118.994C118.994 42.3035 118.831 41.8885 118.506 41.563C118.18 41.2293 117.672 41.0625 116.98 41.0625C116.386 41.0625 115.926 41.1968 115.601 41.4653C115.275 41.7339 115.112 42.0757 115.112 42.4907C115.112 42.8813 115.295 43.1987 115.662 43.4429C116.036 43.6789 116.663 43.8864 117.542 44.0654C118.42 44.2363 119.161 44.4316 119.763 44.6514C121.627 45.335 122.559 46.519 122.559 48.2036C122.559 49.408 122.042 50.3846 121.008 51.1333C119.975 51.8739 118.64 52.2441 117.004 52.2441C115.898 52.2441 114.913 52.0488 114.05 51.6582C113.196 51.2594 112.524 50.7183 112.036 50.0347C111.548 49.3429 111.304 48.5983 111.304 47.8008H114.648C114.681 48.4274 114.913 48.9076 115.344 49.2412C115.776 49.5749 116.353 49.7417 117.078 49.7417C117.753 49.7417 118.262 49.6156 118.604 49.3633C118.953 49.1029 119.128 48.7651 119.128 48.3501Z" transform="translate(0 -3)" fill="#525181"/>
</svg>
